<svg viewBox="0 0 41 41" xmlns="http://www.w3.org/2000/svg" data-logo="logo">
            <g transform="translate(0, 0) rotate(0)" id="logogram" style="opacity: 1;"><path fill="#14B8A6" d="M17.3991 3.08704L20.0562 0.429993L40.0562 20.43L20.0562 40.43L17.3991 37.7729L34.742 20.43L17.3991 3.08704Z"></path><path fill="#D41C1C" d="M13.9305 6.55563L16.5876 3.89858L33.119 20.43L16.5876 36.9614L13.9305 34.3044L27.8049 20.43L13.9305 6.55563Z"></path><path fill="#D41C1C" d="M0.0561537 20.43L13.119 7.36717L26.1818 20.43L13.119 33.4928L10.4619 30.8357L20.8677 20.43L13.119 12.6813L2.7132 23.087L0.0561537 20.43Z"></path><path fill="#D41C1C" d="M13.119 14.3044L10.4619 16.9614L13.9305 20.43L6.99333 27.3672L9.65037 30.0242L19.2446 20.43L13.119 14.3044Z"></path><path fill="#D41C1C" d="M6.1818 26.5556L3.52474 23.8986L9.62258 17.8007L12.2796 20.4578L6.1818 26.5556Z"></path></g>
            <g transform="translate(41, 20.5)" id="logotype" style="opacity: 1;"></g>
            
          </svg>